<svg aria-hidden="true" style="position: absolute; width: 0; height: 0; overflow: hidden;" version="1.1" xmlns="http://www.w3.org/2000/svg" xmlns:xlink="http://www.w3.org/1999/xlink">
<defs>
<symbol id="nine-dots" viewBox="0 0 32 32">
<path d="M9 7.5c0 0.297-0.088 0.587-0.253 0.833s-0.399 0.439-0.673 0.552c-0.274 0.114-0.576 0.143-0.867 0.085s-0.558-0.201-0.768-0.411c-0.21-0.21-0.353-0.477-0.411-0.768s-0.028-0.593 0.085-0.867c0.114-0.274 0.306-0.508 0.552-0.673s0.537-0.253 0.833-0.253c0.398 0 0.779 0.158 1.061 0.439s0.439 0.663 0.439 1.061zM16 6c-0.297 0-0.587 0.088-0.833 0.253s-0.439 0.399-0.552 0.673-0.143 0.576-0.085 0.867c0.058 0.291 0.201 0.558 0.411 0.768s0.477 0.353 0.768 0.411c0.291 0.058 0.592 0.028 0.867-0.085s0.508-0.306 0.673-0.552c0.165-0.247 0.253-0.537 0.253-0.833 0-0.398-0.158-0.779-0.439-1.061s-0.663-0.439-1.061-0.439zM24.5 9c0.297 0 0.587-0.088 0.833-0.253s0.439-0.399 0.552-0.673 0.143-0.576 0.085-0.867c-0.058-0.291-0.201-0.558-0.41-0.768s-0.477-0.353-0.768-0.411c-0.291-0.058-0.593-0.028-0.867 0.085s-0.508 0.306-0.673 0.552c-0.165 0.247-0.253 0.537-0.253 0.833 0 0.398 0.158 0.779 0.439 1.061s0.663 0.439 1.061 0.439zM7.5 14.5c-0.297 0-0.587 0.088-0.833 0.253s-0.439 0.399-0.552 0.673c-0.114 0.274-0.143 0.576-0.085 0.867s0.201 0.558 0.411 0.768c0.21 0.21 0.477 0.353 0.768 0.41s0.593 0.028 0.867-0.085c0.274-0.113 0.508-0.306 0.673-0.552s0.253-0.537 0.253-0.833c0-0.398-0.158-0.779-0.439-1.061s-0.663-0.439-1.061-0.439zM16 14.5c-0.297 0-0.587 0.088-0.833 0.253s-0.439 0.399-0.552 0.673-0.143 0.576-0.085 0.867c0.058 0.291 0.201 0.558 0.411 0.768s0.477 0.353 0.768 0.41c0.291 0.058 0.592 0.028 0.867-0.085s0.508-0.306 0.673-0.552c0.165-0.247 0.253-0.537 0.253-0.833 0-0.398-0.158-0.779-0.439-1.061s-0.663-0.439-1.061-0.439zM24.5 14.5c-0.297 0-0.587 0.088-0.833 0.253s-0.439 0.399-0.552 0.673-0.143 0.576-0.085 0.867c0.058 0.291 0.201 0.558 0.41 0.768s0.477 0.353 0.768 0.41c0.291 0.058 0.593 0.028 0.867-0.085s0.508-0.306 0.673-0.552c0.165-0.247 0.253-0.537 0.253-0.833 0-0.398-0.158-0.779-0.439-1.061s-0.663-0.439-1.061-0.439zM7.5 23c-0.297 0-0.587 0.088-0.833 0.253s-0.439 0.399-0.552 0.673c-0.114 0.274-0.143 0.576-0.085 0.867s0.201 0.558 0.411 0.768c0.21 0.21 0.477 0.353 0.768 0.41s0.593 0.028 0.867-0.085c0.274-0.113 0.508-0.306 0.673-0.552s0.253-0.537 0.253-0.833c0-0.398-0.158-0.779-0.439-1.061s-0.663-0.439-1.061-0.439zM16 23c-0.297 0-0.587 0.088-0.833 0.253s-0.439 0.399-0.552 0.673-0.143 0.576-0.085 0.867c0.058 0.291 0.201 0.558 0.411 0.768s0.477 0.353 0.768 0.41c0.291 0.058 0.592 0.028 0.867-0.085s0.508-0.306 0.673-0.552c0.165-0.247 0.253-0.537 0.253-0.833 0-0.398-0.158-0.779-0.439-1.061s-0.663-0.439-1.061-0.439zM24.5 23c-0.297 0-0.587 0.088-0.833 0.253s-0.439 0.399-0.552 0.673-0.143 0.576-0.085 0.867c0.058 0.291 0.201 0.558 0.41 0.768s0.477 0.353 0.768 0.41c0.291 0.058 0.593 0.028 0.867-0.085s0.508-0.306 0.673-0.552c0.165-0.247 0.253-0.537 0.253-0.833 0-0.398-0.158-0.779-0.439-1.061s-0.663-0.439-1.061-0.439z"></path>
</symbol>

<symbol id="burger" viewBox="0 0 32 32">
<path d="M6.4 11.733v-2.133h19.2v2.133h-19.2zM6.4 17.067h19.2v-2.133h-19.2v2.133zM6.4 22.4h19.2v-2.133h-19.2v2.133z"></path>
</symbol>

<symbol id="b" viewBox="0 0 32 32">
<path d="M0 2h32v4h-32zM0 8h32v4h-32zM0 14h32v4h-32zM0 20h32v4h-32zM0 26h32v4h-32z"></path>
</symbol>

<symbol id="radio" viewBox="0 0 32 32">
<path d="M16 0c-8.837 0-16 7.163-16 16s7.163 16 16 16 16-7.163 16-16-7.163-16-16-16zM16 28c-6.627 0-12-5.373-12-12s5.373-12 12-12c6.627 0 12 5.373 12 12s-5.373 12-12 12z"></path>
</symbol>

<symbol id="instagram" viewBox="0 0 33 32">
<path d="M21.41 4h-10.667c-3.682 0-6.667 2.985-6.667 6.667v10.667c0 3.682 2.985 6.667 6.667 6.667h10.667c3.682 0 6.667-2.985 6.667-6.667v-10.667c0-3.682-2.985-6.667-6.667-6.667zM25.744 21.333c-0.007 2.39-1.943 4.326-4.333 4.333h-10.667c-2.39-0.007-4.326-1.943-4.333-4.333v-10.667c0.007-2.39 1.943-4.326 4.333-4.333h10.667c2.39 0.007 4.326 1.943 4.333 4.333v10.667zM22.41 11c0.736 0 1.333-0.597 1.333-1.333s-0.597-1.333-1.333-1.333-1.333 0.597-1.333 1.333c0 0.736 0.597 1.333 1.333 1.333zM16.077 10c-3.314 0-6 2.686-6 6s2.686 6 6 6c3.314 0 6-2.686 6-6 0.004-1.592-0.628-3.121-1.753-4.247s-2.654-1.757-4.247-1.753zM12.41 16c0 2.025 1.642 3.667 3.667 3.667s3.667-1.642 3.667-3.667c0-2.025-1.642-3.667-3.667-3.667s-3.667 1.642-3.667 3.667z"></path>
</symbol> 

<symbol id="burger-menu" viewBox="0 0 32 32">
<path d="M6.667 8.667h18.667v2h-18.667v-2z"></path>
<path d="M6.667 22h18.667v2h-18.667v-2z"></path>
<path d="M6.667 15.333h18.667v2h-18.667v-2z"></path>
</symbol>

<symbol id="x" viewBox="0 0 32 32">
<path d="M25.707 24.292c0.093 0.093 0.167 0.203 0.217 0.325s0.076 0.252 0.076 0.383c0 0.131-0.026 0.262-0.076 0.383s-0.124 0.232-0.217 0.325c-0.093 0.093-0.203 0.167-0.325 0.217s-0.252 0.076-0.383 0.076c-0.131 0-0.262-0.026-0.383-0.076s-0.232-0.124-0.325-0.217l-8.293-8.294-8.292 8.294c-0.188 0.188-0.442 0.293-0.707 0.293s-0.52-0.105-0.707-0.293c-0.188-0.188-0.293-0.442-0.293-0.707s0.105-0.52 0.293-0.707l8.294-8.293-8.294-8.292c-0.188-0.188-0.293-0.442-0.293-0.707s0.105-0.52 0.293-0.707c0.188-0.188 0.442-0.293 0.707-0.293s0.52 0.105 0.707 0.293l8.292 8.294 8.293-8.294c0.188-0.188 0.442-0.293 0.707-0.293s0.52 0.105 0.707 0.293c0.188 0.188 0.293 0.442 0.293 0.707s-0.105 0.52-0.293 0.707l-8.294 8.292 8.294 8.293z"></path>
</symbol>

<symbol id="mail" viewBox="0 0 33 32">
<path d="M3.607 8.643c0.323-1.425 1.598-2.489 3.121-2.489h19.2c1.523 0 2.797 1.064 3.121 2.489l-12.721 7.774-12.721-7.774zM3.528 10.469v11.366l9.285-5.691-9.285-5.674zM14.346 17.080l-10.511 6.443c0.513 1.082 1.616 1.831 2.893 1.831h19.2c1.277 0 2.38-0.748 2.893-1.831l-10.511-6.443-1.982 1.211-1.982-1.211zM19.843 16.143l9.285 5.691v-11.366l-9.285 5.674z"></path>
</symbol>

<symbol id="au" viewBox="0 0 32 32">
<path fill="#0052b4" style="fill: var(--color1, #0052b4)" d="M32 16c0 8.836-7.164 16-16 16s-16-7.164-16-16c0 0.004 16-15.998 16-16 8.836 0 16 7.163 16 16z"></path>
<path fill="#f0f0f0" style="fill: var(--color2, #f0f0f0)" d="M15.963 16h0.043c0-0.014 0-0.028 0-0.043-0.014 0.014-0.028 0.029-0.043 0.043z"></path>
<path fill="#f0f0f0" style="fill: var(--color2, #f0f0f0)" d="M16 8.348c0-2.815 0-4.66 0-8.348h-0.003c-8.835 0.001-15.997 7.164-15.997 16h8.348v-4.701l4.701 4.701h2.909c0.014-0.014 0.029-0.028 0.043-0.043 0-1.078 0-2.040 0-2.909l-4.701-4.701h4.701z"></path>
<path fill="#d80027" style="fill: var(--color3, #d80027)" d="M8.095 2.087c-2.502 1.425-4.583 3.505-6.008 6.008v7.905h4.174v-9.739h9.739c0-1.316 0-2.571 0-4.174h-7.905z"></path>
<path fill="#d80027" style="fill: var(--color3, #d80027)" d="M16.002 14.033l-5.684-5.684h-1.968c0-0 0 0 0 0l7.652 7.652c0 0 0-1.357 0-1.968z"></path>
<path fill="#f0f0f0" style="fill: var(--color2, #f0f0f0)" d="M9.655 18.783l0.878 1.836 1.983-0.458-0.888 1.831 1.595 1.265-1.985 0.447 0.006 2.035-1.588-1.273-1.588 1.273 0.006-2.035-1.986-0.447 1.595-1.265-0.888-1.831 1.983 0.458 0.878-1.836z"></path>
<path fill="#f0f0f0" style="fill: var(--color2, #f0f0f0)" d="M23.959 22.261l0.439 0.918 0.992-0.229-0.444 0.916 0.797 0.632-0.993 0.224 0.003 1.018-0.794-0.637-0.794 0.637 0.003-1.018-0.993-0.224 0.797-0.632-0.444-0.916 0.991 0.229 0.439-0.918z"></path>
<path fill="#f0f0f0" style="fill: var(--color2, #f0f0f0)" d="M19.871 12.522l0.439 0.918 0.992-0.229-0.444 0.916 0.797 0.632-0.993 0.224 0.003 1.018-0.794-0.637-0.794 0.637 0.003-1.018-0.993-0.224 0.797-0.632-0.444-0.916 0.992 0.229 0.439-0.918z"></path>
<path fill="#f0f0f0" style="fill: var(--color2, #f0f0f0)" d="M23.959 6.957l0.439 0.918 0.992-0.229-0.444 0.916 0.797 0.632-0.993 0.224 0.003 1.018-0.794-0.637-0.794 0.637 0.003-1.018-0.993-0.224 0.797-0.632-0.444-0.916 0.991 0.229 0.439-0.918z"></path>
<path fill="#f0f0f0" style="fill: var(--color2, #f0f0f0)" d="M27.534 11.13l0.439 0.918 0.992-0.229-0.444 0.916 0.797 0.632-0.993 0.224 0.003 1.018-0.794-0.637-0.794 0.637 0.003-1.018-0.993-0.224 0.797-0.632-0.444-0.916 0.991 0.229 0.439-0.918z"></path>
<path fill="#f0f0f0" style="fill: var(--color2, #f0f0f0)" d="M24.975 16l0.345 1.063h1.118l-0.904 0.657 0.345 1.063-0.904-0.657-0.904 0.657 0.345-1.063-0.904-0.657h1.118l0.345-1.063z"></path>
</symbol>
<symbol id="uk" viewBox="0 0 32 32">
<path fill="#f0f0f0" style="fill: var(--color2, #f0f0f0)" d="M31.792 15.896c0 8.779-7.117 15.896-15.896 15.896s-15.896-7.117-15.896-15.896c0-8.779 7.117-15.896 15.896-15.896s15.896 7.117 15.896 15.896z"></path>
<path fill="#0052b4" style="fill: var(--color1, #0052b4)" d="M3.307 6.258c-1.223 1.576-2.171 3.436-2.73 5.456l-0.026 0.112h8.32z"></path>
<path fill="#0052b4" style="fill: var(--color1, #0052b4)" d="M31.448 11.826c-0.586-2.132-1.534-3.992-2.784-5.604l0.027 0.036-5.568 5.568z"></path>
<path fill="#0052b4" style="fill: var(--color1, #0052b4)" d="M0.55 20.173c0.586 2.132 1.534 3.99 2.784 5.603l-0.027-0.036 5.566-5.566z"></path>
<path fill="#0052b4" style="fill: var(--color1, #0052b4)" d="M25.741 3.307c-1.576-1.223-3.436-2.171-5.456-2.73l-0.112-0.026v8.32z"></path>
<path fill="#0052b4" style="fill: var(--color1, #0052b4)" d="M6.258 28.691c1.576 1.223 3.436 2.171 5.456 2.73l0.112 0.026v-8.32z"></path>
<path fill="#0052b4" style="fill: var(--color1, #0052b4)" d="M11.824 0.55c-2.132 0.586-3.99 1.534-5.603 2.784l0.036-0.027 5.566 5.566z"></path>
<path fill="#0052b4" style="fill: var(--color1, #0052b4)" d="M20.173 31.448c2.132-0.586 3.99-1.534 5.603-2.784l-0.036 0.027-5.566-5.566z"></path>
<path fill="#0052b4" style="fill: var(--color1, #0052b4)" d="M23.125 20.173l5.568 5.566c1.223-1.576 2.17-3.435 2.73-5.454l0.026-0.112z"></path>
<path fill="#d80027" style="fill: var(--color3, #d80027)" d="M31.864 13.92h-13.784v-13.784c-0.625-0.086-1.347-0.135-2.080-0.135s-1.455 0.049-2.163 0.144l0.083-0.009v13.784h-13.784c-0.086 0.627-0.135 1.351-0.135 2.087s0.049 1.46 0.145 2.17l-0.009-0.083h13.784v13.778c0.627 0.086 1.351 0.135 2.087 0.135s1.46-0.049 2.17-0.145l-0.083 0.009v-13.792h13.778c0.086-0.627 0.135-1.351 0.135-2.087s-0.049-1.46-0.145-2.17l0.009 0.083z"></path>
<path fill="#d80027" style="fill: var(--color3, #d80027)" d="M20.174 20.174v0l7.139 7.139q0.493-0.493 0.941-1.027l-6.112-6.112h-1.968z"></path>
<path fill="#d80027" style="fill: var(--color3, #d80027)" d="M11.826 20.174v0l-7.139 7.139q0.493 0.493 1.027 0.941l6.112-6.112z"></path>
<path fill="#d80027" style="fill: var(--color3, #d80027)" d="M11.826 11.826v0l-7.139-7.139q-0.493 0.493-0.941 1.027l6.112 6.112h1.968z"></path>
<path fill="#d80027" style="fill: var(--color3, #d80027)" d="M20.174 11.826v0l7.139-7.139q-0.493-0.493-1.027-0.941l-6.112 6.112z"></path>
</symbol>
<symbol id="us" viewBox="0 0 33 32">
<path fill="#f0f0f0" style="fill: var(--color2, #f0f0f0)" d="M32.817 15.897c0 8.779-7.346 15.897-16.409 15.897s-16.409-7.117-16.409-15.897c0-8.779 7.346-15.897 16.409-15.897s16.409 7.117 16.409 15.897z"></path>
<path fill="#d80027" style="fill: var(--color3, #d80027)" d="M15.755 16.002h16.696c0-0.002 0-0.005 0-0.008 0-1.482-0.201-2.917-0.578-4.279l0.027 0.113h-16.144z"></path>
<path fill="#d80027" style="fill: var(--color3, #d80027)" d="M15.755 7.66h14.348c-1.008-1.627-2.234-3.007-3.66-4.15l-0.032-0.025h-10.656z"></path>
<path fill="#d80027" style="fill: var(--color3, #d80027)" d="M16.451 32.002c0.007 0 0.015 0 0.023 0 3.772 0 7.239-1.311 9.968-3.503l-0.031 0.024h-19.92c2.698 2.167 6.164 3.479 9.937 3.479 0.008 0 0.016 0 0.025-0h-0.001z"></path>
<path fill="#d80027" style="fill: var(--color3, #d80027)" d="M2.799 24.349h27.304c0.751-1.201 1.368-2.589 1.778-4.063l0.027-0.112h-30.906c0.434 1.585 1.048 2.973 1.836 4.242l-0.039-0.068z"></path>
<path fill="#0052b4" style="fill: var(--color1, #0052b4)" d="M7.863 2.499h1.459l-1.357 0.985 0.519 1.595-1.357-0.984-1.357 0.984 0.448-1.377c-1.191 0.996-2.216 2.134-3.066 3.4l-0.037 0.058h0.468l-0.863 0.627q-0.202 0.336-0.387 0.684l0.412 1.268-0.77-0.558q-0.287 0.607-0.523 1.242l0.455 1.391h1.677l-1.357 0.985 0.518 1.595-1.357-0.985-0.82 0.591c-0.073 0.578-0.115 1.246-0.115 1.924 0 0.027 0 0.053 0 0.080l-0-0.004h16v-16c-0.007 0-0.016-0-0.024-0-3.179 0-6.141 0.932-8.627 2.537l0.063-0.038zM8.483 14.4l-1.357-0.985-1.357 0.985 0.518-1.601-1.357-0.985h1.677l0.518-1.595 0.518 1.595h1.677l-1.357 0.985zM7.965 8.145l0.519 1.595-1.357-0.985-1.357 0.985 0.518-1.595-1.357-0.984h1.677l0.518-1.595 0.518 1.595h1.677zM14.221 14.4l-1.357-0.985-1.357 0.985 0.52-1.601-1.357-0.985h1.677l0.518-1.595 0.518 1.595h1.67l-1.357 0.985zM13.704 8.145l0.518 1.595-1.357-0.985-1.357 0.985 0.518-1.595-1.357-0.984h1.677l0.518-1.595 0.518 1.595h1.67zM13.704 3.484l0.518 1.595-1.357-0.984-1.357 0.984 0.518-1.595-1.357-0.985h1.677l0.518-1.595 0.518 1.595h1.67z"></path>
</symbol>
<symbol id="india" viewBox="0 0 32 32">
<path fill="#f0f0f0" style="fill: var(--color2, #f0f0f0)" d="M16 32c8.836 0 16-7.164 16-16s-7.164-16-16-16c-8.837 0-16 7.163-16 16s7.163 16 16 16z"></path>
<path fill="#ff9811" style="fill: var(--color4, #ff9811)" d="M16 0c-6.343 0-11.824 3.692-14.412 9.043h28.825c-2.588-5.352-8.069-9.043-14.412-9.043z"></path>
<path fill="#6da544" style="fill: var(--color5, #6da544)" d="M16 32c6.343 0 11.824-3.692 14.412-9.044h-28.825c2.588 5.352 8.069 9.044 14.412 9.044z"></path>
<path fill="#0052b4" style="fill: var(--color1, #0052b4)" d="M16.003 21.565c3.074 0 5.565-2.492 5.565-5.565s-2.492-5.565-5.565-5.565-5.565 2.492-5.565 5.565c0 3.074 2.492 5.565 5.565 5.565z"></path>
<path fill="#f0f0f0" style="fill: var(--color2, #f0f0f0)" d="M16.003 19.478c1.921 0 3.478-1.557 3.478-3.478s-1.557-3.478-3.478-3.478c-1.921 0-3.478 1.557-3.478 3.478s1.557 3.478 3.478 3.478z"></path>
<path fill="#0052b4" style="fill: var(--color1, #0052b4)" d="M16.005 11.708l1.073 2.434 2.644-0.288-1.571 2.146 1.571 2.146-2.644-0.288-1.073 2.434-1.073-2.434-2.644 0.288 1.571-2.146-1.571-2.146 2.644 0.288 1.073-2.434z"></path>
</symbol>
<symbol id="fr" viewBox="0 0 32 32">
<path fill="#fff" style="fill: var(--color6, #fff)" d="M21.565 0.995c-3.591-1.327-7.538-1.327-11.13 0l-1.386 15.005 1.392 15.005c3.591 1.327 7.538 1.327 11.13 0l1.392-15.005-1.398-15.005z"></path>
<path fill="#ef4135" style="fill: var(--color7, #ef4135)" d="M31.998 15.998c0.001-3.267-0.999-6.457-2.864-9.139s-4.508-4.729-7.571-5.866v30.011c3.064-1.136 5.706-3.184 7.571-5.867s2.865-5.872 2.864-9.14v0z"></path>
<path fill="#0055a4" style="fill: var(--color8, #0055a4)" d="M0 15.997c-0.001 3.268 0.998 6.458 2.863 9.141s4.508 4.731 7.572 5.867v-30.010c-3.063 1.136-5.705 3.183-7.57 5.864s-2.865 5.87-2.865 9.137v0z"></path>
</symbol>
<symbol id="ca" viewBox="0 0 32 32">
<path fill="#f0f0f0" style="fill: var(--color2, #f0f0f0)" d="M32.385 16c0 8.837-7.163 16-16 16s-16-7.163-16-16c0-8.837 7.163-16 16-16s16 7.163 16 16z"></path>
<path fill="#d80027" style="fill: var(--color3, #d80027)" d="M32.211 16.105c0-0.001 0-0.002 0-0.004 0-6.35-3.675-11.842-9.015-14.465l-0.095-0.042v29.017c5.434-2.664 9.11-8.156 9.11-14.507 0-0 0-0 0-0v0z"></path>
<path fill="#d80027" style="fill: var(--color3, #d80027)" d="M0 16.105c0 0.001 0 0.002 0 0.003 0 6.348 3.673 11.838 9.009 14.462l0.095 0.042v-29.017c-5.431 2.666-9.104 8.156-9.104 14.504 0 0.002 0 0.005 0 0.007v-0z"></path>
<path fill="#d80027" style="fill: var(--color3, #d80027)" d="M18.905 18.205l2.801-1.401-1.401-0.7v-1.401l-2.801 1.401 1.401-2.801h-1.401l-1.401-2.105-1.401 2.105h-1.401l1.401 2.801-2.801-1.401v1.401l-1.401 0.7 2.801 1.401-0.7 1.401h2.801v2.105h1.401v-2.105h2.801z"></path>
</symbol>
<symbol id="it" viewBox="0 0 32 32">
<path fill="#f0f0f0" style="fill: var(--color2, #f0f0f0)" d="M32.32 16.001c0 8.837-7.164 16.001-16.001 16.001s-16.001-7.164-16.001-16.001c0-8.837 7.164-16.001 16.001-16.001s16.001 7.164 16.001 16.001z"></path>
<path fill="#d80027" style="fill: var(--color3, #d80027)" d="M32.212 16.106c0-0 0-0 0-0.001 0-6.884-4.318-12.76-10.393-15.066l-0.111-0.037v30.208c6.186-2.344 10.503-8.22 10.503-15.104v-0z"></path>
<path fill="#6da544" style="fill: var(--color5, #6da544)" d="M0 16.106c0 0 0 0 0 0.001 0 6.884 4.318 12.76 10.393 15.066l0.111 0.037v-30.208c-6.186 2.344-10.503 8.219-10.503 15.103 0 0 0 0 0 0.001v0z"></path>
</symbol>
<symbol id="es" viewBox="0 0 32 32">
<path fill="#c52127" style="fill: var(--color9, #c52127)" d="M32 0h-32v32h32v-32z"></path>
<path fill="#ffc40d" style="fill: var(--color10, #ffc40d)" d="M32 4.8h-32v22.4h32v-22.4z"></path>
</symbol>
<symbol id="de" viewBox="0 0 32 32">
<path fill="#ffda44" style="fill: var(--color11, #ffda44)" d="M0.995 21.566c2.324 6.151 8.163 10.445 15.005 10.445s12.681-4.295 14.968-10.335l0.037-0.11-15.005-1.392z"></path>
<path fill="#000" style="fill: var(--color12, #000)" d="M15.998 0c-0.001 0-0.002 0-0.004 0-6.838 0-12.675 4.29-14.964 10.325l-0.037 0.11 15.005 1.392 15.005-1.392c-2.327-6.145-8.163-10.435-15.001-10.435-0.001 0-0.003 0-0.004 0h0z"></path>
<path fill="#d80027" style="fill: var(--color3, #d80027)" d="M0.995 10.435c-0.63 1.654-0.995 3.567-0.995 5.565s0.365 3.911 1.032 5.675l-0.037-0.11h30.010c0.63-1.654 0.995-3.567 0.995-5.565s-0.365-3.911-1.032-5.675l0.037 0.111z"></path>
</symbol>
<symbol id="pl" viewBox="0 0 32 32">
<path fill="#f0f0f0" style="fill: var(--color2, #f0f0f0)" d="M31.792 15.896c0 8.779-7.117 15.896-15.896 15.896s-15.896-7.117-15.896-15.896c0-8.779 7.117-15.896 15.896-15.896s15.896 7.117 15.896 15.896z"></path>
<path fill="#d80027" style="fill: var(--color3, #d80027)" d="M32.26 16.001c0.001 0.048 0.001 0.104 0.001 0.161 0 8.837-7.164 16.001-16.001 16.001s-16.001-7.164-16.001-16.001c0-0.056 0-0.113 0.001-0.169l-0 0.009z"></path>
</symbol>

</defs>
</svg>
