<svg aria-hidden="true" style="position: absolute; width: 0; height: 0; overflow: hidden;" version="1.1" xmlns="http://www.w3.org/2000/svg" xmlns:xlink="http://www.w3.org/1999/xlink">
<defs>
<symbol id="nine-dots" viewBox="0 0 32 32">
<path d="M9 7.5c0 0.297-0.088 0.587-0.253 0.833s-0.399 0.439-0.673 0.552c-0.274 0.114-0.576 0.143-0.867 0.085s-0.558-0.201-0.768-0.411c-0.21-0.21-0.353-0.477-0.411-0.768s-0.028-0.593 0.085-0.867c0.114-0.274 0.306-0.508 0.552-0.673s0.537-0.253 0.833-0.253c0.398 0 0.779 0.158 1.061 0.439s0.439 0.663 0.439 1.061zM16 6c-0.297 0-0.587 0.088-0.833 0.253s-0.439 0.399-0.552 0.673-0.143 0.576-0.085 0.867c0.058 0.291 0.201 0.558 0.411 0.768s0.477 0.353 0.768 0.411c0.291 0.058 0.592 0.028 0.867-0.085s0.508-0.306 0.673-0.552c0.165-0.247 0.253-0.537 0.253-0.833 0-0.398-0.158-0.779-0.439-1.061s-0.663-0.439-1.061-0.439zM24.5 9c0.297 0 0.587-0.088 0.833-0.253s0.439-0.399 0.552-0.673 0.143-0.576 0.085-0.867c-0.058-0.291-0.201-0.558-0.41-0.768s-0.477-0.353-0.768-0.411c-0.291-0.058-0.593-0.028-0.867 0.085s-0.508 0.306-0.673 0.552c-0.165 0.247-0.253 0.537-0.253 0.833 0 0.398 0.158 0.779 0.439 1.061s0.663 0.439 1.061 0.439zM7.5 14.5c-0.297 0-0.587 0.088-0.833 0.253s-0.439 0.399-0.552 0.673c-0.114 0.274-0.143 0.576-0.085 0.867s0.201 0.558 0.411 0.768c0.21 0.21 0.477 0.353 0.768 0.41s0.593 0.028 0.867-0.085c0.274-0.113 0.508-0.306 0.673-0.552s0.253-0.537 0.253-0.833c0-0.398-0.158-0.779-0.439-1.061s-0.663-0.439-1.061-0.439zM16 14.5c-0.297 0-0.587 0.088-0.833 0.253s-0.439 0.399-0.552 0.673-0.143 0.576-0.085 0.867c0.058 0.291 0.201 0.558 0.411 0.768s0.477 0.353 0.768 0.41c0.291 0.058 0.592 0.028 0.867-0.085s0.508-0.306 0.673-0.552c0.165-0.247 0.253-0.537 0.253-0.833 0-0.398-0.158-0.779-0.439-1.061s-0.663-0.439-1.061-0.439zM24.5 14.5c-0.297 0-0.587 0.088-0.833 0.253s-0.439 0.399-0.552 0.673-0.143 0.576-0.085 0.867c0.058 0.291 0.201 0.558 0.41 0.768s0.477 0.353 0.768 0.41c0.291 0.058 0.593 0.028 0.867-0.085s0.508-0.306 0.673-0.552c0.165-0.247 0.253-0.537 0.253-0.833 0-0.398-0.158-0.779-0.439-1.061s-0.663-0.439-1.061-0.439zM7.5 23c-0.297 0-0.587 0.088-0.833 0.253s-0.439 0.399-0.552 0.673c-0.114 0.274-0.143 0.576-0.085 0.867s0.201 0.558 0.411 0.768c0.21 0.21 0.477 0.353 0.768 0.41s0.593 0.028 0.867-0.085c0.274-0.113 0.508-0.306 0.673-0.552s0.253-0.537 0.253-0.833c0-0.398-0.158-0.779-0.439-1.061s-0.663-0.439-1.061-0.439zM16 23c-0.297 0-0.587 0.088-0.833 0.253s-0.439 0.399-0.552 0.673-0.143 0.576-0.085 0.867c0.058 0.291 0.201 0.558 0.411 0.768s0.477 0.353 0.768 0.41c0.291 0.058 0.592 0.028 0.867-0.085s0.508-0.306 0.673-0.552c0.165-0.247 0.253-0.537 0.253-0.833 0-0.398-0.158-0.779-0.439-1.061s-0.663-0.439-1.061-0.439zM24.5 23c-0.297 0-0.587 0.088-0.833 0.253s-0.439 0.399-0.552 0.673-0.143 0.576-0.085 0.867c0.058 0.291 0.201 0.558 0.41 0.768s0.477 0.353 0.768 0.41c0.291 0.058 0.593 0.028 0.867-0.085s0.508-0.306 0.673-0.552c0.165-0.247 0.253-0.537 0.253-0.833 0-0.398-0.158-0.779-0.439-1.061s-0.663-0.439-1.061-0.439z"></path>
</symbol>

<symbol id="burger" viewBox="0 0 32 32">
<path d="M6.4 11.733v-2.133h19.2v2.133h-19.2zM6.4 17.067h19.2v-2.133h-19.2v2.133zM6.4 22.4h19.2v-2.133h-19.2v2.133z"></path>
</symbol>

<symbol id="b" viewBox="0 0 32 32">
<path d="M0 2h32v4h-32zM0 8h32v4h-32zM0 14h32v4h-32zM0 20h32v4h-32zM0 26h32v4h-32z"></path>
</symbol>

<symbol id="radio" viewBox="0 0 32 32">
<path d="M16 0c-8.837 0-16 7.163-16 16s7.163 16 16 16 16-7.163 16-16-7.163-16-16-16zM16 28c-6.627 0-12-5.373-12-12s5.373-12 12-12c6.627 0 12 5.373 12 12s-5.373 12-12 12z"></path>
</symbol>

<symbol id="instagram" viewBox="0 0 33 32">
<path d="M21.41 4h-10.667c-3.682 0-6.667 2.985-6.667 6.667v10.667c0 3.682 2.985 6.667 6.667 6.667h10.667c3.682 0 6.667-2.985 6.667-6.667v-10.667c0-3.682-2.985-6.667-6.667-6.667zM25.744 21.333c-0.007 2.39-1.943 4.326-4.333 4.333h-10.667c-2.39-0.007-4.326-1.943-4.333-4.333v-10.667c0.007-2.39 1.943-4.326 4.333-4.333h10.667c2.39 0.007 4.326 1.943 4.333 4.333v10.667zM22.41 11c0.736 0 1.333-0.597 1.333-1.333s-0.597-1.333-1.333-1.333-1.333 0.597-1.333 1.333c0 0.736 0.597 1.333 1.333 1.333zM16.077 10c-3.314 0-6 2.686-6 6s2.686 6 6 6c3.314 0 6-2.686 6-6 0.004-1.592-0.628-3.121-1.753-4.247s-2.654-1.757-4.247-1.753zM12.41 16c0 2.025 1.642 3.667 3.667 3.667s3.667-1.642 3.667-3.667c0-2.025-1.642-3.667-3.667-3.667s-3.667 1.642-3.667 3.667z"></path>
</symbol> 

<symbol id="burger-menu" viewBox="0 0 32 32">
<path d="M6.667 8.667h18.667v2h-18.667v-2z"></path>
<path d="M6.667 22h18.667v2h-18.667v-2z"></path>
<path d="M6.667 15.333h18.667v2h-18.667v-2z"></path>
</symbol>

<symbol id="x" viewBox="0 0 32 32">
<path d="M25.707 24.292c0.093 0.093 0.167 0.203 0.217 0.325s0.076 0.252 0.076 0.383c0 0.131-0.026 0.262-0.076 0.383s-0.124 0.232-0.217 0.325c-0.093 0.093-0.203 0.167-0.325 0.217s-0.252 0.076-0.383 0.076c-0.131 0-0.262-0.026-0.383-0.076s-0.232-0.124-0.325-0.217l-8.293-8.294-8.292 8.294c-0.188 0.188-0.442 0.293-0.707 0.293s-0.52-0.105-0.707-0.293c-0.188-0.188-0.293-0.442-0.293-0.707s0.105-0.52 0.293-0.707l8.294-8.293-8.294-8.292c-0.188-0.188-0.293-0.442-0.293-0.707s0.105-0.52 0.293-0.707c0.188-0.188 0.442-0.293 0.707-0.293s0.52 0.105 0.707 0.293l8.292 8.294 8.293-8.294c0.188-0.188 0.442-0.293 0.707-0.293s0.52 0.105 0.707 0.293c0.188 0.188 0.293 0.442 0.293 0.707s-0.105 0.52-0.293 0.707l-8.294 8.292 8.294 8.293z"></path>
</symbol>

<symbol id="mail" viewBox="0 0 33 32">
<path d="M3.607 8.643c0.323-1.425 1.598-2.489 3.121-2.489h19.2c1.523 0 2.797 1.064 3.121 2.489l-12.721 7.774-12.721-7.774zM3.528 10.469v11.366l9.285-5.691-9.285-5.674zM14.346 17.080l-10.511 6.443c0.513 1.082 1.616 1.831 2.893 1.831h19.2c1.277 0 2.38-0.748 2.893-1.831l-10.511-6.443-1.982 1.211-1.982-1.211zM19.843 16.143l9.285 5.691v-11.366l-9.285 5.674z"></path>
</symbol>

</defs>
</svg>
